<?xml version="1.0" encoding="UTF-8" standalone="no"?>
<!DOCTYPE svg PUBLIC "-//W3C//DTD SVG 1.1//EN" "http://www.w3.org/Graphics/SVG/1.1/DTD/svg11.dtd">
<svg width="100%" height="100%" viewBox="0 0 30 30" version="1.1" xmlns="http://www.w3.org/2000/svg" xmlns:xlink="http://www.w3.org/1999/xlink" xml:space="preserve" xmlns:serif="http://www.serif.com/" style="fill-rule:evenodd;clip-rule:evenodd;stroke-linejoin:round;stroke-miterlimit:2;">
    <rect id="Artboard1" x="0" y="0" width="30" height="30" style="fill:none;"/>
    <g id="Artboard11" serif:id="Artboard1">
        <rect x="0" y="0" width="30" height="30" style="fill:rgb(115,207,219);"/>
        <g id="duck" transform="matrix(1,0,0,1,-19,1)">
            <path d="M41,14L43,14L43,15L45,15L45,17L46,17L46,24L44,24L44,25L43,25L43,26L42,26L42,27L26,27L26,26L25,26L25,25L24,25L24,24L22,24L22,14L29,14L29,12L27,12L27,5L28,5L28,3L31,3L31,2L39,2L39,3L42,3L42,12L41,12L41,14Z" style="fill:rgb(247,248,60);"/>
            <path d="M46,12L38,12L38,10L40,10L40,9L46,9L46,12Z" style="fill:rgb(232,145,53);"/>
            <path d="M41,12L38,12L38,11L46,11L46,12L42,12L42,13L41,13L41,12Z" style="fill:rgb(254,3,52);"/>
            <g transform="matrix(1,0,0,0.5,0,1)">
                <path d="M41,4L42,4L42,6L41,6L41,4ZM39,2L41,2L41,4L39,4L39,2ZM22,44L21,44L21,26L22,26L22,44ZM45,30L44,30L44,28L45,28L45,30ZM46,32L45,32L45,30L46,30L46,32ZM46,44L46,32L47,32L47,44L46,44ZM45,46L45,44L46,44L46,46L45,46ZM44,48L44,46L45,46L45,48L44,48ZM43,50L43,48L44,48L44,50L43,50ZM42,52L42,50L43,50L43,52L42,52ZM26,52L42,52L42,54L26,54L26,52ZM25,50L26,50L26,52L25,52L25,50ZM24,48L25,48L25,50L24,50L24,48ZM23,46L24,46L24,48L23,48L23,46ZM22,44L23,44L23,46L22,46L22,44ZM27,22L26,22L26,8L27,8L27,22ZM29,26L29,24L30,24L30,26L29,26ZM27,8L27,4L28,4L28,8L27,8ZM28,4L28,2L31,2L31,4L28,4ZM29,24L27,24L27,22L29,22L29,24ZM31,2L31,0L39,0L39,2L31,2ZM26,26L29,26L29,28L26,28L26,26ZM22,26L22,24L26,24L26,26L22,26ZM38,22L37,22L37,18L38,18L38,22ZM41,24L42,24L42,26L41,26L41,24ZM38,22L41,22L41,24L38,24L38,22ZM46,16L39,16L39,14L42,14L42,10L43,10L43,14L46,14L46,16ZM46,22L46,16L47,16L47,22L46,22ZM42,24L42,22L46,22L46,24L42,24Z"/>
            </g>
            <rect x="33" y="7" width="2" height="2"/>
            <path d="M24,24L25,24L25,25L24,25L24,24ZM26,26L42,26L42,27L26,27L26,26ZM25,25L26,25L26,26L25,26L25,25ZM23,23L24,23L24,24L23,24L23,23ZM23,23L22,23L22,22L23,22L23,23Z" style="fill:rgb(232,145,53);"/>
            <g transform="matrix(1,0,0,1,-2,-1)">
                <path d="M41,18L38,18L38,17L42,17L42,18L45,18L45,19L41,19L41,18Z" style="fill:white;"/>
            </g>
        </g>
    </g>
</svg>
