<?xml version="1.0" encoding="UTF-8" standalone="no"?>
<!DOCTYPE svg PUBLIC "-//W3C//DTD SVG 1.1//EN" "http://www.w3.org/Graphics/SVG/1.1/DTD/svg11.dtd">
<svg width="100%" height="100%" viewBox="0 0 80 30" version="1.1" xmlns="http://www.w3.org/2000/svg" xmlns:xlink="http://www.w3.org/1999/xlink" xml:space="preserve" xmlns:serif="http://www.serif.com/" style="fill-rule:evenodd;clip-rule:evenodd;stroke-linejoin:round;stroke-miterlimit:2;">
    <rect id="Artboard1" x="0" y="0" width="80" height="30" style="fill:none;"/>
    <clipPath id="_clip1">
        <rect id="Artboard11" serif:id="Artboard1" x="0" y="0" width="80" height="30"/>
    </clipPath>
    <g clip-path="url(#_clip1)">
        <g id="bg">
            <g id="bg1" serif:id="bg">
                <rect x="0" y="6" width="80" height="1" style="fill:rgb(82,142,237);"/>
                <rect x="0" y="7" width="80" height="1" style="fill:rgb(85,148,235);"/>
                <rect x="0" y="8" width="80" height="1" style="fill:rgb(87,151,234);"/>
                <rect x="0" y="10" width="80" height="1" style="fill:rgb(92,162,231);"/>
                <rect x="0" y="9" width="80" height="1" style="fill:rgb(89,156,233);"/>
                <rect x="0" y="11" width="80" height="1" style="fill:rgb(95,166,230);"/>
                <rect x="0" y="12" width="80" height="1" style="fill:rgb(96,170,229);"/>
                <rect x="0" y="13" width="80" height="1" style="fill:rgb(99,175,227);"/>
                <rect x="0" y="14" width="80" height="1" style="fill:rgb(101,179,226);"/>
                <rect x="0" y="15" width="80" height="1" style="fill:rgb(103,184,225);"/>
                <rect x="0" y="16" width="80" height="1" style="fill:rgb(106,189,224);"/>
                <rect x="0" y="17" width="80" height="1" style="fill:rgb(108,193,223);"/>
                <rect x="0" y="18" width="80" height="1" style="fill:rgb(110,197,221);"/>
                <rect x="0" y="19" width="80" height="1" style="fill:rgb(112,201,220);"/>
                <rect x="0" y="20" width="80" height="1" style="fill:rgb(115,207,219);"/>
                <rect x="0" y="21" width="80" height="1" style="fill:rgb(117,211,217);"/>
                <rect x="0" y="22" width="80" height="1" style="fill:rgb(119,216,216);"/>
                <rect x="0" y="23" width="80" height="1" style="fill:rgb(122,221,215);"/>
                <rect x="0" y="24" width="80" height="1" style="fill:rgb(123,224,214);"/>
                <rect x="0" y="25" width="80" height="1" style="fill:rgb(126,229,212);"/>
                <rect x="0" y="26" width="80" height="1" style="fill:rgb(128,234,211);"/>
            </g>
            <rect x="0" y="14" width="8" height="1" style="fill:rgb(71,26,243);"/>
            <rect x="0" y="28" width="80" height="2" style="fill:rgb(232,145,53);"/>
            <rect x="0" y="27" width="80" height="1" style="fill:rgb(134,250,78);"/>
        </g>
        <g id="duck">
            <path d="M43.907,19.185L45.167,19.185L45.167,19.815L46.426,19.815L46.426,21.074L47.056,21.074L47.056,25.481L45.796,25.481L45.796,26.111L45.167,26.111L45.167,26.741L44.537,26.741L44.537,27.37L34.463,27.37L34.463,26.741L33.833,26.741L33.833,26.111L33.204,26.111L33.204,25.481L31.944,25.481L31.944,19.185L36.352,19.185L36.352,17.926L35.093,17.926L35.093,13.519L35.722,13.519L35.722,12.259L37.611,12.259L37.611,11.63L42.648,11.63L42.648,12.259L44.537,12.259L44.537,17.926L43.907,17.926L43.907,19.185Z" style="fill:rgb(247,248,60);"/>
            <path d="M47.056,17.926L42.019,17.926L42.019,16.667L43.278,16.667L43.278,16.037L47.056,16.037L47.056,17.926Z" style="fill:rgb(232,145,53);"/>
            <path d="M43.907,17.926L42.019,17.926L42.019,17.296L47.056,17.296L47.056,17.926L44.537,17.926L44.537,18.556L43.907,18.556L43.907,17.926Z" style="fill:rgb(254,3,52);"/>
            <path d="M43.907,12.259L44.537,12.259L44.537,12.889L43.907,12.889L43.907,12.259ZM42.648,11.63L43.907,11.63L43.907,12.259L42.648,12.259L42.648,11.63ZM31.944,24.852L31.315,24.852L31.315,19.185L31.944,19.185L31.944,24.852ZM46.426,20.444L45.796,20.444L45.796,19.815L46.426,19.815L46.426,20.444ZM47.056,21.074L46.426,21.074L46.426,20.444L47.056,20.444L47.056,21.074ZM47.056,24.852L47.056,21.074L47.685,21.074L47.685,24.852L47.056,24.852ZM46.426,25.481L46.426,24.852L47.056,24.852L47.056,25.481L46.426,25.481ZM45.796,26.111L45.796,25.481L46.426,25.481L46.426,26.111L45.796,26.111ZM45.167,26.741L45.167,26.111L45.796,26.111L45.796,26.741L45.167,26.741ZM44.537,27.37L44.537,26.741L45.167,26.741L45.167,27.37L44.537,27.37ZM34.463,27.37L44.537,27.37L44.537,28L34.463,28L34.463,27.37ZM33.833,26.741L34.463,26.741L34.463,27.37L33.833,27.37L33.833,26.741ZM33.204,26.111L33.833,26.111L33.833,26.741L33.204,26.741L33.204,26.111ZM32.574,25.481L33.204,25.481L33.204,26.111L32.574,26.111L32.574,25.481ZM31.944,24.852L32.574,24.852L32.574,25.481L31.944,25.481L31.944,24.852ZM35.093,17.926L34.463,17.926L34.463,13.519L35.093,13.519L35.093,17.926ZM36.352,19.185L36.352,18.556L36.981,18.556L36.981,19.185L36.352,19.185ZM35.093,13.519L35.093,12.259L35.722,12.259L35.722,13.519L35.093,13.519ZM35.722,12.259L35.722,11.63L37.611,11.63L37.611,12.259L35.722,12.259ZM36.352,18.556L35.093,18.556L35.093,17.926L36.352,17.926L36.352,18.556ZM37.611,11.63L37.611,11L42.648,11L42.648,11.63L37.611,11.63ZM34.463,19.185L36.352,19.185L36.352,19.815L34.463,19.815L34.463,19.185ZM31.944,19.185L31.944,18.556L34.463,18.556L34.463,19.185L31.944,19.185ZM42.019,17.926L41.389,17.926L41.389,16.667L42.019,16.667L42.019,17.926ZM43.907,18.556L44.537,18.556L44.537,19.185L43.907,19.185L43.907,18.556ZM42.019,17.926L43.907,17.926L43.907,18.556L42.019,18.556L42.019,17.926ZM47.056,16.037L42.648,16.037L42.648,15.407L44.537,15.407L44.537,14.148L45.167,14.148L45.167,15.407L47.056,15.407L47.056,16.037ZM47.056,17.926L47.056,16.037L47.685,16.037L47.685,17.926L47.056,17.926ZM44.537,18.556L44.537,17.926L47.056,17.926L47.056,18.556L44.537,18.556Z"/>
            <rect x="38.87" y="14.778" width="1.259" height="1.259"/>
            <path d="M33.204,25.481L33.833,25.481L33.833,26.111L33.204,26.111L33.204,25.481ZM34.463,26.741L44.537,26.741L44.537,27.37L34.463,27.37L34.463,26.741ZM33.833,26.111L34.463,26.111L34.463,26.741L33.833,26.741L33.833,26.111ZM32.574,24.852L33.204,24.852L33.204,25.481L32.574,25.481L32.574,24.852ZM32.574,24.852L31.944,24.852L31.944,24.222L32.574,24.222L32.574,24.852Z" style="fill:rgb(232,145,53);"/>
            <path d="M42.648,21.074L40.759,21.074L40.759,20.444L43.278,20.444L43.278,21.074L45.167,21.074L45.167,21.704L42.648,21.704L42.648,21.074Z" style="fill:white;"/>
        </g>
        <path d="M27,8L27,6L23,6L23,2L73,2L73,5L79,5L79,8L78,8L78,10L80,10L80,15L75,15L75,16L73,16L73,15L70,15L70,14L68,14L68,13L67,13L67,12L66,12L66,11L65,11L65,9L61,9L61,10L57,10L57,9L52,9L52,8L49,8L49,7L48,7L48,6L45,6L45,7L43,7L43,8L39,8L39,9L36,9L36,8L33,8L33,7L31,7L31,6L29,6L29,7L28,7L28,8L27,8ZM26,9L26,8L27,8L27,9L26,9ZM10,14L-1,14L-1,7L10,7L10,5L11,5L11,3L13,3L13,9L26,9L26,10L24,10L24,11L20,11L20,12L18,12L18,11L15,11L15,10L13,10L13,11L12,11L12,12L11,12L11,13L10,13L10,14ZM5,15L5,16L3,16L3,15L5,15Z" style="fill:rgb(71,26,243);"/>
        <path d="M51,1L51,3L46,3L46,1L51,1ZM27,4L27,9L12,9L12,4L27,4Z" style="fill:rgb(71,26,243);"/>
        <path d="M0,11L0,0L80,0L80,11L76,11L76,12L75,12L75,11L71,11L71,10L69,10L69,9L68,9L68,8L67,8L67,7L66,7L66,5L59,5L59,6L58,6L58,5L52,5L52,4L51,4L51,3L50,3L50,2L49,2L49,1L47,1L47,2L45,2L45,3L44,3L44,4L40,4L40,5L38,5L38,4L34,4L34,3L32,3L32,2L30,2L30,3L29,3L29,4L28,4L28,5L27,5L27,6L25,6L25,7L21,7L21,8L20,8L20,7L16,7L16,6L14,6L14,7L13,7L13,8L12,8L12,9L11,9L11,10L9,10L9,11L5,11L5,12L3,12L3,11L0,11Z" style="fill:rgb(254,255,245);"/>
    </g>
</svg>
